<svg width="34" height="34" viewBox="0 0 34 34" fill="none" xmlns="http://www.w3.org/2000/svg">
<path d="M7 5H20L27 12V29H7V5Z" fill="white"/>
<path d="M27.7075 11.2925L20.7075 4.2925C20.6146 4.19967 20.5042 4.12605 20.3829 4.07586C20.2615 4.02568 20.1314 3.9999 20 4H8C7.46957 4 6.96086 4.21071 6.58579 4.58579C6.21071 4.96086 6 5.46957 6 6V28C6 28.5304 6.21071 29.0391 6.58579 29.4142C6.96086 29.7893 7.46957 30 8 30H26C26.5304 30 27.0391 29.7893 27.4142 29.4142C27.7893 29.0391 28 28.5304 28 28V12C28.0001 11.8686 27.9743 11.7385 27.9241 11.6172C27.8739 11.4958 27.8003 11.3854 27.7075 11.2925ZM21 7.41375L24.5863 11H21V7.41375ZM26 28H8V6H19V12C19 12.2652 19.1054 12.5196 19.2929 12.7071C19.4804 12.8946 19.7348 13 20 13H26V28Z" fill="black"/>
<path d="M12 7L25 24V27H22L9 10V7H12Z" fill="#00AAFF"/>
</svg>
